<?xml version="1.0" encoding="UTF-8"?>
<svg width="24px" height="24px" viewBox="0 0 24 24" version="1.1" xmlns="http://www.w3.org/2000/svg" xmlns:xlink="http://www.w3.org/1999/xlink">
    <!-- Generator: Sketch 64 (93537) - https://sketch.com -->
    <title>loading</title>
    <desc>Created with Sketch.</desc>
    <defs>
        <radialGradient cx="88.3425237%" cy="80.0429746%" fx="88.3425237%" fy="80.0429746%" r="98.2835145%" gradientTransform="translate(0.883425,0.800430),scale(0.625000,1.000000),rotate(180.000000),translate(-0.883425,-0.800430)" id="radialGradient-1">
            <stop stop-color="#D1E6FE" offset="0%"></stop>
            <stop stop-color="#1C7EEA" offset="100%"></stop>
        </radialGradient>
    </defs>
    <g id="Page-1" stroke="none" stroke-width="1" fill="none" fill-rule="evenodd">
        <g id="loading" fill-rule="nonzero">
            <path d="M12,0 C18.627417,0 24,5.372583 24,12 C24,18.627417 18.627417,24 12,24 C5.372583,24 0,18.627417 0,12 C0,5.372583 5.372583,0 12,0 Z M12,6 C8.6862915,6 6,8.6862915 6,12 C6,15.3137085 8.6862915,18 12,18 C15.3137085,18 18,15.3137085 18,12 C18,8.6862915 15.3137085,6 12,6 Z" id="Oval-2" fill="#1C7EEA"></path>
            <path d="M12,0 C18.624,0 24,5.41935484 24,12 L24,12 C24,13.68 22.68,15 21,15 C19.32,15 18,13.68 18,12 C18,8.6862915 15.3137085,6 12,6 C8.6862915,6 6,8.6862915 6,12 L0,12 C0,5.41935484 5.376,0 12,0 Z" id="Combined-Shape" fill="url(#radialGradient-1)"></path>
        </g>
    </g>
</svg>