<svg width="119" height="44" viewBox="0 0 119 44" fill="none" xmlns="http://www.w3.org/2000/svg">
<path d="M31 17C31 12.5 27.5143 10 23.3841 10H13V14H23.5C25.5 14 27 15 27 17C27 19 25.5 20 23.3841 20H13V34H17V24H22L26 34H30.6352L26 24C29.2141 23.1786 31 20.5 31 17Z" fill="white"/>
<rect x="1" y="1" width="42" height="42" stroke="white" stroke-width="2"/>
<path d="M58.266 19H59.93L58.201 15.971L57.434 15.048C58.89 14.827 59.8 13.865 59.8 12.487C59.8 10.927 58.617 9.90002 56.771 9.90002H53.17V19H54.535V15.1H56.303L58.266 19ZM54.535 11.122H56.797C57.928 11.122 58.37 11.512 58.37 12.5C58.37 13.501 57.928 13.904 56.797 13.904H54.535V11.122Z" fill="white"/>
<path d="M66.6643 15.75C66.6643 13.839 65.4553 12.63 63.7133 12.63C61.9193 12.63 60.6453 13.943 60.6453 15.893C60.6453 17.856 61.8803 19.13 63.7783 19.13C65.0523 19.13 66.0793 18.61 66.5213 17.518L65.3253 17.037C65.0393 17.778 64.6623 18.012 63.7913 18.012C62.6213 18.012 62.1013 17.505 61.9973 16.296H66.6513C66.6643 16.049 66.6643 15.945 66.6643 15.75ZM63.7263 13.722C64.8053 13.722 65.2863 14.164 65.3383 15.321H62.0103C62.1403 14.229 62.6863 13.722 63.7263 13.722Z" fill="white"/>
<path d="M72.2836 12.76L70.9186 16.686L70.4506 18.155L70.0086 16.699L68.6566 12.76H67.1876L69.9046 19.793L69.9306 19.767L69.8526 20.027H67.5906V21.21H68.9296C70.0736 21.21 70.5676 20.833 70.9446 19.884L73.7526 12.76H72.2836Z" fill="white"/>
<path d="M78.4488 12.63C77.2268 12.63 76.5638 13.267 76.2648 14.268V12.76H74.9388V19H76.2648V16.062C76.2648 14.619 76.9408 13.839 77.9938 13.839C78.8388 13.839 79.3588 14.32 79.3588 15.256V19H80.6848V15.165C80.6848 13.514 79.9178 12.63 78.4488 12.63Z" fill="white"/>
<path d="M87.3376 12.76V14.073C86.9086 13.15 86.1026 12.63 85.0366 12.63C83.2816 12.63 82.1766 13.93 82.1766 15.88C82.1766 17.83 83.2946 19.13 85.0886 19.13C86.1286 19.13 86.9086 18.61 87.3376 17.713V19H88.6636V12.76H87.3376ZM85.4526 17.921C84.0746 17.921 83.5156 17.336 83.5156 15.88C83.5156 14.424 84.0746 13.839 85.4526 13.839C86.8306 13.839 87.4025 14.424 87.4025 15.88C87.4025 17.336 86.8306 17.921 85.4526 17.921Z" fill="white"/>
<path d="M96.2444 15.75C96.2444 13.839 95.0354 12.63 93.2934 12.63C91.4994 12.63 90.2254 13.943 90.2254 15.893C90.2254 17.856 91.4604 19.13 93.3584 19.13C94.6324 19.13 95.6594 18.61 96.1014 17.518L94.9054 17.037C94.6194 17.778 94.2424 18.012 93.3714 18.012C92.2014 18.012 91.6814 17.505 91.5774 16.296H96.2314C96.2444 16.049 96.2444 15.945 96.2444 15.75ZM93.3064 13.722C94.3854 13.722 94.8664 14.164 94.9184 15.321H91.5904C91.7204 14.229 92.2664 13.722 93.3064 13.722Z" fill="white"/>
<path d="M101.041 12.643C99.7927 12.643 99.2987 13.579 99.1037 14.58V12.76H97.7777V19H99.1037V16.296C99.1037 14.827 99.7537 13.878 100.937 13.878C101.405 13.878 101.6 13.956 101.782 14.034V12.747C101.587 12.656 101.314 12.643 101.041 12.643Z" fill="white"/>
<path d="M105.115 19.13C106.727 19.13 107.728 18.363 107.728 17.141C107.728 16.14 107.091 15.594 106.116 15.425L104.699 15.178C104.101 15.087 103.932 14.866 103.932 14.437C103.932 13.917 104.283 13.67 105.037 13.67C105.778 13.67 106.181 13.852 106.298 14.84L107.598 14.528C107.364 13.215 106.441 12.63 104.985 12.63C103.516 12.63 102.593 13.358 102.593 14.515C102.593 15.633 103.347 16.166 104.348 16.335L105.479 16.543C106.22 16.673 106.402 16.855 106.402 17.323C106.402 17.83 106.025 18.064 105.206 18.064C104.335 18.064 103.867 17.778 103.737 16.868L102.424 17.245C102.645 18.389 103.633 19.13 105.115 19.13Z" fill="white"/>
<path d="M59.566 34H61.074L57.59 24.9H55.666L52.169 34H53.664L54.548 31.621H58.682L59.566 34ZM55.016 30.399L56.082 27.539L56.628 25.966L57.161 27.539L58.227 30.399H55.016Z" fill="white"/>
<path d="M62.2562 34H63.5822V24.9H62.2562V34Z" fill="white"/>
<path d="M69.9885 27.76V30.698C69.9885 32.141 69.3125 32.921 68.2595 32.921C67.4145 32.921 66.8945 32.44 66.8945 31.504V27.76H65.5685V31.595C65.5685 33.246 66.3355 34.13 67.8045 34.13C69.0265 34.13 69.6895 33.493 69.9885 32.492V34H71.3145V27.76H69.9885Z" fill="white"/>
<path d="M81.2692 27.63C80.1252 27.63 79.3712 28.215 79.0072 29.307C78.7732 28.215 78.0452 27.63 76.8492 27.63C75.6272 27.63 74.9642 28.267 74.6652 29.268V27.76H73.3392V34H74.6652V31.062C74.6652 29.619 75.3412 28.839 76.3942 28.839C77.2392 28.839 77.7592 29.32 77.7592 30.256V34H79.0852V31.387C79.0852 29.723 79.6442 28.839 80.8272 28.839C81.6722 28.839 82.1792 29.333 82.1792 30.308V34H83.5052V30.23C83.5052 28.54 82.7382 27.63 81.2692 27.63Z" fill="white"/>
<path d="M86.1519 26.473C86.7499 26.473 87.0749 26.148 87.0619 25.576C87.0489 25.017 86.7239 24.718 86.1519 24.718C85.5669 24.718 85.2289 25.017 85.2419 25.576C85.2549 26.148 85.5799 26.473 86.1519 26.473ZM85.4759 34H86.8019V27.76H85.4759V34Z" fill="white"/>
<path d="M92.3502 27.63C91.1282 27.63 90.4652 28.267 90.1662 29.268V27.76H88.8402V34H90.1662V31.062C90.1662 29.619 90.8422 28.839 91.8952 28.839C92.7402 28.839 93.2602 29.32 93.2602 30.256V34H94.5862V30.165C94.5862 28.514 93.8192 27.63 92.3502 27.63Z" fill="white"/>
<path d="M97.2349 26.473C97.8329 26.473 98.1579 26.148 98.1449 25.576C98.1319 25.017 97.8069 24.718 97.2349 24.718C96.6499 24.718 96.3119 25.017 96.3249 25.576C96.3379 26.148 96.6629 26.473 97.2349 26.473ZM96.5589 34H97.8849V27.76H96.5589V34Z" fill="white"/>
<path d="M104.291 27.76V30.698C104.291 32.141 103.615 32.921 102.562 32.921C101.717 32.921 101.197 32.44 101.197 31.504V27.76H99.8712V31.595C99.8712 33.246 100.638 34.13 102.107 34.13C103.329 34.13 103.992 33.493 104.291 32.492V34H105.617V27.76H104.291Z" fill="white"/>
<path d="M115.572 27.63C114.428 27.63 113.674 28.215 113.31 29.307C113.076 28.215 112.348 27.63 111.152 27.63C109.93 27.63 109.267 28.267 108.968 29.268V27.76H107.642V34H108.968V31.062C108.968 29.619 109.644 28.839 110.697 28.839C111.542 28.839 112.062 29.32 112.062 30.256V34H113.388V31.387C113.388 29.723 113.947 28.839 115.13 28.839C115.975 28.839 116.482 29.333 116.482 30.308V34H117.808V30.23C117.808 28.54 117.041 27.63 115.572 27.63Z" fill="white"/>
</svg>
