<svg width="175" height="60" viewBox="0 0 175 60" fill="none" xmlns="http://www.w3.org/2000/svg">
<path fill-rule="evenodd" clip-rule="evenodd" d="M0 0H60V60H0V0ZM32.4224 13C38.1587 13 43 16.2893 43 23.2708C43 28.7222 40.2247 31.949 35.7606 33.1126L42.4934 47H36.8077L30.2607 33.5489H22.8356V47H18V28.5833H32.4224C35.7156 28.5833 38.1389 26.9652 38.1389 23.2708C38.1389 19.7277 35.6109 17.9583 32.2727 17.9583H18V13H32.4224Z" fill="#003C75"/>
<path d="M80.676 26H82.98L80.586 21.806L79.524 20.528C81.54 20.222 82.8 18.89 82.8 16.982C82.8 14.822 81.162 13.4 78.606 13.4H73.62V26H75.51V20.6H77.958L80.676 26ZM75.51 15.092H78.642C80.208 15.092 80.82 15.632 80.82 17C80.82 18.386 80.208 18.944 78.642 18.944H75.51V15.092Z" fill="#003C75"/>
<path d="M92.3044 21.5C92.3044 18.854 90.6304 17.18 88.2184 17.18C85.7344 17.18 83.9704 18.998 83.9704 21.698C83.9704 24.416 85.6804 26.18 88.3084 26.18C90.0724 26.18 91.4944 25.46 92.1064 23.948L90.4504 23.282C90.0544 24.308 89.5324 24.632 88.3264 24.632C86.7064 24.632 85.9864 23.93 85.8424 22.256H92.2864C92.3044 21.914 92.3044 21.77 92.3044 21.5ZM88.2364 18.692C89.7304 18.692 90.3964 19.304 90.4684 20.906H85.8604C86.0404 19.394 86.7964 18.692 88.2364 18.692Z" fill="#003C75"/>
<path d="M100.085 17.36L98.1949 22.796L97.5469 24.83L96.9349 22.814L95.0629 17.36H93.0289L96.7909 27.098L96.8269 27.062L96.7189 27.422H93.5869V29.06H95.4409C97.0249 29.06 97.7089 28.538 98.2309 27.224L102.119 17.36H100.085Z" fill="#003C75"/>
<path d="M108.621 17.18C106.929 17.18 106.011 18.062 105.597 19.448V17.36H103.761V26H105.597V21.932C105.597 19.934 106.533 18.854 107.991 18.854C109.161 18.854 109.881 19.52 109.881 20.816V26H111.717V20.69C111.717 18.404 110.655 17.18 108.621 17.18Z" fill="#003C75"/>
<path d="M120.929 17.36V19.178C120.335 17.9 119.219 17.18 117.743 17.18C115.313 17.18 113.783 18.98 113.783 21.68C113.783 24.38 115.331 26.18 117.815 26.18C119.255 26.18 120.335 25.46 120.929 24.218V26H122.765V17.36H120.929ZM118.319 24.506C116.411 24.506 115.637 23.696 115.637 21.68C115.637 19.664 116.411 18.854 118.319 18.854C120.227 18.854 121.019 19.664 121.019 21.68C121.019 23.696 120.227 24.506 118.319 24.506Z" fill="#003C75"/>
<path d="M133.261 21.5C133.261 18.854 131.587 17.18 129.175 17.18C126.691 17.18 124.927 18.998 124.927 21.698C124.927 24.416 126.637 26.18 129.265 26.18C131.029 26.18 132.451 25.46 133.063 23.948L131.407 23.282C131.011 24.308 130.489 24.632 129.283 24.632C127.663 24.632 126.943 23.93 126.799 22.256H133.243C133.261 21.914 133.261 21.77 133.261 21.5ZM129.193 18.692C130.687 18.692 131.353 19.304 131.425 20.906H126.817C126.997 19.394 127.753 18.692 129.193 18.692Z" fill="#003C75"/>
<path d="M139.902 17.198C138.174 17.198 137.49 18.494 137.22 19.88V17.36H135.384V26H137.22V22.256C137.22 20.222 138.12 18.908 139.758 18.908C140.406 18.908 140.676 19.016 140.928 19.124V17.342C140.658 17.216 140.28 17.198 139.902 17.198Z" fill="#003C75"/>
<path d="M145.544 26.18C147.776 26.18 149.162 25.118 149.162 23.426C149.162 22.04 148.28 21.284 146.93 21.05L144.968 20.708C144.14 20.582 143.906 20.276 143.906 19.682C143.906 18.962 144.392 18.62 145.436 18.62C146.462 18.62 147.02 18.872 147.182 20.24L148.982 19.808C148.658 17.99 147.38 17.18 145.364 17.18C143.33 17.18 142.052 18.188 142.052 19.79C142.052 21.338 143.096 22.076 144.482 22.31L146.048 22.598C147.074 22.778 147.326 23.03 147.326 23.678C147.326 24.38 146.804 24.704 145.67 24.704C144.464 24.704 143.816 24.308 143.636 23.048L141.818 23.57C142.124 25.154 143.492 26.18 145.544 26.18Z" fill="#003C75"/>
<path d="M82.476 47H84.564L79.74 34.3999H77.076L72.234 47H74.304L75.528 43.7059H81.252L82.476 47ZM76.176 42.0139L77.652 38.0539L78.408 35.8759L79.146 38.0539L80.622 42.0139H76.176Z" fill="#003C75"/>
<path d="M86.2009 47H88.0369V34.3999H86.2009V47Z" fill="#003C75"/>
<path d="M96.9071 38.3599V42.4279C96.9071 44.426 95.9711 45.5059 94.5131 45.5059C93.3431 45.5059 92.6231 44.8399 92.6231 43.5439V38.3599H90.7871V43.67C90.7871 45.956 91.8491 47.18 93.8831 47.18C95.5751 47.18 96.4931 46.2979 96.9071 44.9119V47H98.7431V38.3599H96.9071Z" fill="#003C75"/>
<path d="M112.527 38.1799C110.943 38.1799 109.899 38.99 109.395 40.5019C109.071 38.99 108.063 38.1799 106.407 38.1799C104.715 38.1799 103.797 39.0619 103.383 40.4479V38.3599H101.547V47H103.383V42.9319C103.383 40.9339 104.319 39.8539 105.777 39.8539C106.947 39.8539 107.667 40.5199 107.667 41.8159V47H109.503V43.382C109.503 41.078 110.277 39.8539 111.915 39.8539C113.085 39.8539 113.787 40.5379 113.787 41.8879V47H115.623V41.7799C115.623 39.4399 114.561 38.1799 112.527 38.1799Z" fill="#003C75"/>
<path d="M119.287 36.5779C120.115 36.5779 120.565 36.1279 120.547 35.3359C120.529 34.5619 120.079 34.1479 119.287 34.1479C118.477 34.1479 118.009 34.5619 118.027 35.3359C118.045 36.1279 118.495 36.5779 119.287 36.5779ZM118.351 47H120.187V38.3599H118.351V47Z" fill="#003C75"/>
<path d="M127.869 38.1799C126.177 38.1799 125.259 39.0619 124.845 40.4479V38.3599H123.009V47H124.845V42.9319C124.845 40.9339 125.781 39.8539 127.239 39.8539C128.409 39.8539 129.129 40.5199 129.129 41.8159V47H130.965V41.6899C130.965 39.4039 129.903 38.1799 127.869 38.1799Z" fill="#003C75"/>
<path d="M134.633 36.5779C135.461 36.5779 135.911 36.1279 135.893 35.3359C135.875 34.5619 135.425 34.1479 134.633 34.1479C133.823 34.1479 133.355 34.5619 133.373 35.3359C133.391 36.1279 133.841 36.5779 134.633 36.5779ZM133.697 47H135.533V38.3599H133.697V47Z" fill="#003C75"/>
<path d="M144.403 38.3599V42.4279C144.403 44.426 143.467 45.5059 142.009 45.5059C140.839 45.5059 140.119 44.8399 140.119 43.5439V38.3599H138.283V43.67C138.283 45.956 139.345 47.18 141.379 47.18C143.071 47.18 143.989 46.2979 144.403 44.9119V47H146.239V38.3599H144.403Z" fill="#003C75"/>
<path d="M160.023 38.1799C158.439 38.1799 157.395 38.99 156.891 40.5019C156.567 38.99 155.559 38.1799 153.903 38.1799C152.211 38.1799 151.293 39.0619 150.879 40.4479V38.3599H149.043V47H150.879V42.9319C150.879 40.9339 151.815 39.8539 153.273 39.8539C154.443 39.8539 155.163 40.5199 155.163 41.8159V47H156.999V43.382C156.999 41.078 157.773 39.8539 159.411 39.8539C160.581 39.8539 161.283 40.5379 161.283 41.8879V47H163.119V41.7799C163.119 39.4399 162.057 38.1799 160.023 38.1799Z" fill="#003C75"/>
</svg>
